<?xml version="1.0" encoding="UTF-8" standalone="no"?>
<!-- Created with Inkscape (http://www.inkscape.org/) -->

<svg
   width="210mm"
   height="297mm"
   viewBox="0 0 210 297"
   version="1.1"
   id="svg5"
   inkscape:version="1.1.1 (3bf5ae0d25, 2021-09-20)"
   sodipodi:docname="pix.svg"
   xmlns:inkscape="http://www.inkscape.org/namespaces/inkscape"
   xmlns:sodipodi="http://sodipodi.sourceforge.net/DTD/sodipodi-0.dtd"
   xmlns="http://www.w3.org/2000/svg"
   xmlns:svg="http://www.w3.org/2000/svg">
  <sodipodi:namedview
     id="namedview7"
     pagecolor="#ffffff"
     bordercolor="#666666"
     borderopacity="1.0"
     inkscape:pageshadow="2"
     inkscape:pageopacity="0.0"
     inkscape:pagecheckerboard="0"
     inkscape:document-units="mm"
     showgrid="false"
     inkscape:zoom="0.74029882"
     inkscape:cx="-310.68535"
     inkscape:cy="567.33847"
     inkscape:window-width="1920"
     inkscape:window-height="1017"
     inkscape:window-x="1358"
     inkscape:window-y="-8"
     inkscape:window-maximized="1"
     inkscape:current-layer="g917" />
  <defs
     id="defs2" />
  <g
     inkscape:label="Camada 1"
     inkscape:groupmode="layer"
     id="layer1">
    <g
       id="g917"
       transform="matrix(0.26458333,0,0,0.26458333,-203.95916,118.52205)">
      <path
         d="M 246.13,264.53 A 46.07,46.07 0 0 1 213.35,251 L 166,203.62 a 9,9 0 0 0 -12.44,0 l -47.51,47.51 A 46.09,46.09 0 0 1 73.27,264.7 H 64 l 60,60 a 48,48 0 0 0 67.81,0 l 60.12,-60.13 z"
         fill="#32bcad"
         id="path834"
         style="fill:#ffcd1d;fill-opacity:1" />
      <path
         d="m 73.28,97.09 a 46.08,46.08 0 0 1 32.78,13.57 l 47.51,47.52 a 8.81,8.81 0 0 0 12.44,0 l 47.34,-47.34 a 46,46 0 0 1 32.78,-13.58 h 5.7 L 191.71,37.14 a 47.94,47.94 0 0 0 -67.81,0 L 64,97.09 Z"
         fill="#32bcad"
         id="path836"
         style="fill:#ffcd1d;fill-opacity:1" />
      <path
         d="m 301.56,147 -36.33,-36.33 a 7,7 0 0 1 -2.58,0.52 h -16.52 a 32.62,32.62 0 0 0 -22.93,9.5 L 175.86,168 a 22.74,22.74 0 0 1 -32.13,0 L 96.21,120.51 A 32.62,32.62 0 0 0 73.28,111 H 53 a 7.12,7.12 0 0 1 -2.44,-0.49 L 14,147 a 48,48 0 0 0 0,67.81 l 36.48,36.48 a 6.85,6.85 0 0 1 2.44,-0.49 h 20.36 a 32.63,32.63 0 0 0 22.93,-9.51 l 47.51,-47.51 c 8.59,-8.58 23.56,-8.58 32.14,0 l 47.34,47.33 a 32.62,32.62 0 0 0 22.93,9.5 h 16.52 a 6.9,6.9 0 0 1 2.58,0.52 l 36.33,-36.33 a 47.94,47.94 0 0 0 0,-67.81"
         fill="#32bcad"
         id="path838"
         style="fill:#ffcd1d;fill-opacity:1" />
    </g>
  </g>
</svg>
